<?xml version="1.0" standalone="no"?><svg xmlns="http://www.w3.org/2000/svg" viewBox="0 0 1440 320"><path fill="#0099ff" fill-opacity="9.83" d="M0,128L0,64L42.4,64L42.4,288L84.7,288L84.7,256L127.1,256L127.1,224L169.4,224L169.4,32L211.8,32L211.8,192L254.1,192L254.1,64L296.5,64L296.5,288L338.8,288L338.8,256L381.2,256L381.2,32L423.5,32L423.5,224L465.9,224L465.9,288L508.2,288L508.2,256L550.6,256L550.6,192L592.9,192L592.9,256L635.3,256L635.3,128L677.6,128L677.6,160L720,160L720,224L762.4,224L762.4,64L804.7,64L804.7,288L847.1,288L847.1,288L889.4,288L889.4,320L931.8,320L931.8,320L974.1,320L974.1,0L1016.5,0L1016.5,160L1058.8,160L1058.8,96L1101.2,96L1101.2,224L1143.5,224L1143.5,160L1185.9,160L1185.9,128L1228.2,128L1228.2,256L1270.6,256L1270.6,96L1312.9,96L1312.9,96L1355.3,96L1355.3,256L1397.6,256L1397.6,32L1440,32L1440,320L1397.6,320L1397.6,320L1355.3,320L1355.3,320L1312.9,320L1312.9,320L1270.6,320L1270.6,320L1228.2,320L1228.2,320L1185.9,320L1185.9,320L1143.5,320L1143.5,320L1101.2,320L1101.2,320L1058.8,320L1058.8,320L1016.5,320L1016.5,320L974.1,320L974.1,320L931.8,320L931.8,320L889.4,320L889.4,320L847.1,320L847.1,320L804.7,320L804.7,320L762.4,320L762.4,320L720,320L720,320L677.6,320L677.6,320L635.3,320L635.3,320L592.9,320L592.9,320L550.6,320L550.6,320L508.2,320L508.2,320L465.9,320L465.9,320L423.5,320L423.5,320L381.2,320L381.2,320L338.8,320L338.8,320L296.5,320L296.5,320L254.1,320L254.1,320L211.8,320L211.8,320L169.4,320L169.4,320L127.1,320L127.1,320L84.7,320L84.7,320L42.4,320L42.4,320L0,320L0,320Z"></path></svg>